<svg width="256" height="256" viewBox="0 0 256 256" fill="none" xmlns="http://www.w3.org/2000/svg">
  <defs>
    <linearGradient id="bg" x1="0" y1="0" x2="1" y2="1">
      <stop offset="0%" stop-color="#0f172a" />
      <stop offset="100%" stop-color="#1e3a8a" />
    </linearGradient>
    <linearGradient id="cgrad" x1="0" y1="0" x2="1" y2="1">
      <stop offset="0%" stop-color="#f59e0b" />
      <stop offset="100%" stop-color="#fde68a" />
    </linearGradient>
  </defs>
  <rect width="256" height="256" rx="48" fill="url(#bg)" />
  <circle cx="128" cy="128" r="84" fill="rgba(255,255,255,0.08)" />
  <path d="M162.5 74c-23.3 0-41.5 6.7-55.4 20.1-13.9 13.4-20.9 31.6-20.9 53.5 0 21.9 7 40.1 20.9 53.5 13.9 13.4 32.1 20.1 55.4 20.1 16.7 0 31.2-4.1 43.4-12.2 12.2-8.1 20.4-19.8 24.7-34.9l-22.9-6.5c-2.7 9.5-8.3 17.1-16.8 22.9-8.4 5.8-18.5 8.7-30.3 8.7-16.3 0-30.1-5.5-41.3-16.4-11.2-10.9-16.9-24.4-16.9-40.4 0-16 5.6-29.4 16.9-40.4 11.2-10.9 25-16.4 41.3-16.4 11.8 0 21.9 2.9 30.3 8.7 8.5 5.8 14.1 13.4 16.8 22.9l22.9-6.5c-4.3-15.1-12.5-26.8-24.7-34.9-12.2-8.1-26.7-12.2-43.4-12.2Z" fill="url(#cgrad)" />
  <path d="M162.5 86c13.2 0 24.1 3.8 32.7 11.4 8.6 7.6 13.5 17.8 14.8 30.7l22.9-6.5c-2.3-17.9-9.9-32.7-22.9-44.2-13-11.5-29.4-17.3-49.2-17.3-27.8 0-50.6 9.7-68.4 29.1-17.8 19.4-26.7 43.5-26.7 72.4 0 28.8 8.9 53 26.7 72.4 17.8 19.4 40.6 29.1 68.4 29.1 19.8 0 36.2-5.8 49.2-17.3 13-11.5 20.6-26.3 22.9-44.2l-22.9-6.5c-1.3 12.9-6.2 23.1-14.8 30.7-8.6 7.6-19.5 11.4-32.7 11.4-14.4 0-26.5-4.5-36.2-13.5-9.8-9-14.6-20.7-14.6-34.9 0-14.2 4.8-25.9 14.6-34.9 9.7-9 21.8-13.5 36.2-13.5Z" fill="#0f172a" opacity="0.35" />
</svg>