<svg width="256" height="256" viewBox="0 0 256 256" fill="none" xmlns="http://www.w3.org/2000/svg">
  <defs>
    <linearGradient id="bg" x1="0" y1="0" x2="1" y2="1">
      <stop offset="0%" stop-color="#0f172a" />
      <stop offset="100%" stop-color="#1d4ed8" />
    </linearGradient>
    <linearGradient id="gold" x1="0" y1="0" x2="1" y2="1">
      <stop offset="0%" stop-color="#fde047" />
      <stop offset="100%" stop-color="#f59e0b" />
    </linearGradient>
  </defs>
  <rect width="256" height="256" rx="48" fill="url(#bg)" />
  <circle cx="128" cy="96" r="56" fill="rgba(255,255,255,0.08)" />
  <path d="M88 92C88 78.7452 98.7452 68 112 68H156C169.255 68 180 78.7452 180 92V132H88V92Z" fill="url(#gold)" />
  <path d="M108 100H148V116H108V100Z" fill="#111827" />
  <path d="M108 124H148V140H108V124Z" fill="#111827" />
  <path d="M108 148H148V164H108V148Z" fill="#111827" />
  <path d="M86 176H170V188H86V176Z" fill="#fff" opacity="0.85" />
  <path d="M96 180H160" stroke="#111827" stroke-width="6" stroke-linecap="round" />
  <path d="M112 180V164" stroke="#111827" stroke-width="6" stroke-linecap="round" />
  <path d="M136 180V164" stroke="#111827" stroke-width="6" stroke-linecap="round" />
</svg>