<svg width="256" height="256" viewBox="0 0 256 256" fill="none" xmlns="http://www.w3.org/2000/svg">
  <defs>
    <linearGradient id="grad" x1="0" y1="0" x2="1" y2="1">
      <stop offset="0%" stop-color="#0f172a" />
      <stop offset="100%" stop-color="#1d4ed8" />
    </linearGradient>
  </defs>
  <rect width="256" height="256" rx="48" fill="url(#grad)" />
  <path d="M78 84C78 75.1634 85.1634 68 94 68H132C140.837 68 148 75.1634 148 84V172C148 180.837 140.837 188 132 188H94C85.1634 188 78 180.837 78 172V84Z" fill="#FBBF24" />
  <path d="M108 84C108 75.1634 115.163 68 124 68H162C170.837 68 178 75.1634 178 84V172C178 180.837 170.837 188 162 188H124C115.163 188 108 180.837 108 172V84Z" fill="#fff" opacity="0.9" />
  <path d="M86 104H132V152H86V104Z" fill="#0f172a" />
  <path d="M124 104H170V152H124V104Z" fill="#0f172a" opacity="0.8" />
</svg>